<mxfile host="app.diagrams.net" modified="2021-05-20T18:27:58.887Z" agent="5.0 (Macintosh; Intel Mac OS X 10_15_7) AppleWebKit/537.36 (KHTML, like Gecko) Chrome/90.0.4430.212 Safari/537.36" etag="OZqJ40lDUKLyOmK0qMPc" version="14.6.13" type="github">
  <diagram id="DTZBXMAmnjRRK1R0aF1F" name="Page-1">
    <mxGraphModel dx="1173" dy="621" grid="1" gridSize="10" guides="1" tooltips="1" connect="1" arrows="1" fold="1" page="1" pageScale="1" pageWidth="827" pageHeight="1169" math="0" shadow="0">
      <root>
        <mxCell id="0" />
        <mxCell id="1" parent="0" />
        <mxCell id="naFOXuUnsZh0E1okwt5B-11" style="edgeStyle=orthogonalEdgeStyle;rounded=0;orthogonalLoop=1;jettySize=auto;html=1;entryX=0.8;entryY=-0.018;entryDx=0;entryDy=0;entryPerimeter=0;" edge="1" parent="1" source="B0UsQiqWdAp2GQ7vuz4M-4" target="B0UsQiqWdAp2GQ7vuz4M-5">
          <mxGeometry relative="1" as="geometry">
            <Array as="points">
              <mxPoint x="385" y="160" />
              <mxPoint x="298" y="160" />
            </Array>
          </mxGeometry>
        </mxCell>
        <mxCell id="naFOXuUnsZh0E1okwt5B-14" style="edgeStyle=orthogonalEdgeStyle;rounded=0;orthogonalLoop=1;jettySize=auto;html=1;exitX=0.5;exitY=1;exitDx=0;exitDy=0;entryX=0.5;entryY=0;entryDx=0;entryDy=0;" edge="1" parent="1" source="B0UsQiqWdAp2GQ7vuz4M-4" target="naFOXuUnsZh0E1okwt5B-10">
          <mxGeometry relative="1" as="geometry" />
        </mxCell>
        <mxCell id="B0UsQiqWdAp2GQ7vuz4M-4" value="&lt;h1&gt;Stoff&lt;/h1&gt;&lt;div&gt;Ein stoff ist ein gegenstand der aus einem gegebenen material besteht und unabhängig von seiner Größe und Gestalt ist.&lt;/div&gt;&lt;div&gt;zB Wasser,Luft,Holz&lt;/div&gt;&lt;div&gt;&lt;br&gt;&lt;/div&gt;&lt;div&gt;&lt;br&gt;&lt;/div&gt;&lt;div&gt;&lt;br&gt;&lt;/div&gt;" style="text;html=1;strokeColor=none;fillColor=none;spacing=5;spacingTop=-20;whiteSpace=wrap;overflow=hidden;rounded=0;" parent="1" vertex="1">
          <mxGeometry x="290" y="10" width="190" height="130" as="geometry" />
        </mxCell>
        <mxCell id="B0UsQiqWdAp2GQ7vuz4M-11" value="" style="edgeStyle=orthogonalEdgeStyle;rounded=0;orthogonalLoop=1;jettySize=auto;html=1;" parent="1" source="B0UsQiqWdAp2GQ7vuz4M-5" target="B0UsQiqWdAp2GQ7vuz4M-10" edge="1">
          <mxGeometry relative="1" as="geometry" />
        </mxCell>
        <mxCell id="naFOXuUnsZh0E1okwt5B-2" style="edgeStyle=orthogonalEdgeStyle;rounded=0;orthogonalLoop=1;jettySize=auto;html=1;" edge="1" parent="1" source="B0UsQiqWdAp2GQ7vuz4M-5" target="naFOXuUnsZh0E1okwt5B-3">
          <mxGeometry relative="1" as="geometry">
            <mxPoint x="340" y="390" as="targetPoint" />
          </mxGeometry>
        </mxCell>
        <mxCell id="B0UsQiqWdAp2GQ7vuz4M-5" value="Reinstoff&lt;br&gt;&lt;br&gt;Ein stoff, der einheitlich aus nur einem chemischen verbindung oder einem chemischen Element besteht.&lt;br&gt;&lt;br&gt;zB Gold,Sauerstoff,NaCl,CO" style="whiteSpace=wrap;html=1;" parent="1" vertex="1">
          <mxGeometry x="170" y="170" width="160" height="170" as="geometry" />
        </mxCell>
        <mxCell id="B0UsQiqWdAp2GQ7vuz4M-10" value="Chemisches Verbindung&lt;br&gt;&lt;br&gt;Ein Reinstoff, der aus Atomen aus zwei oder mehreren Elementen besteht, wobei die Atomarten- im Gegensatz zu Gemischen - zueinander in einem festen Verhältnis stehen.&lt;br&gt;&lt;br&gt;zB NaCl,Wasser,Kohlendioxid&amp;nbsp;" style="whiteSpace=wrap;html=1;" parent="1" vertex="1">
          <mxGeometry x="50" y="390" width="180" height="180" as="geometry" />
        </mxCell>
        <mxCell id="naFOXuUnsZh0E1okwt5B-3" value="Chemisches Element&lt;br&gt;&lt;br&gt;Ein Reinstoff, der mit chemische methoden nicht mehr in andere Stoffe zerlegt werden kann.&lt;br&gt;&lt;br&gt;zB Zaurstoff(O2),Gold(Au),Silber(Ag)" style="rounded=0;whiteSpace=wrap;html=1;" vertex="1" parent="1">
          <mxGeometry x="280" y="390" width="210" height="180" as="geometry" />
        </mxCell>
        <mxCell id="naFOXuUnsZh0E1okwt5B-10" value="" style="rounded=0;whiteSpace=wrap;html=1;" vertex="1" parent="1">
          <mxGeometry x="540" y="180" width="170" height="150" as="geometry" />
        </mxCell>
      </root>
    </mxGraphModel>
  </diagram>
</mxfile>
